<svg width="18" height="18" viewBox="0 0 18 18" fill="none" xmlns="http://www.w3.org/2000/svg">
<path d="M1.67896 1.57383C1.56646 1.61953 1.42935 1.71094 1.32388 1.81641C0.76138 2.37891 0.961771 3.40547 1.68951 3.67617L1.88638 3.75H9.44146H16.9965L17.1934 3.67617C18.1075 3.33516 18.1075 1.91484 17.1934 1.57383L16.9965 1.5L9.43091 1.50352C1.91451 1.50352 1.86529 1.50352 1.67896 1.57383Z" fill="#145CEF"/>
<path d="M1.67896 7.19883C1.56646 7.24453 1.42935 7.33594 1.32388 7.44141C0.76138 8.00391 0.961771 9.03047 1.68951 9.30117L1.88638 9.375H9.44146H16.9965L17.1934 9.30117C18.1075 8.96016 18.1075 7.53984 17.1934 7.19883L16.9965 7.125L9.43091 7.12852C1.91451 7.12852 1.86529 7.12852 1.67896 7.19883Z" fill="#145CEF"/>
<path d="M1.67896 12.8238C1.56646 12.8695 1.42935 12.9609 1.32388 13.0664C0.76138 13.6289 0.961771 14.6555 1.68951 14.9262L1.88638 15H9.44146H16.9965L17.1934 14.9262C18.1075 14.5852 18.1075 13.1648 17.1934 12.8238L16.9965 12.75L9.43091 12.7535C1.91451 12.7535 1.86529 12.7535 1.67896 12.8238Z" fill="#145CEF"/>
</svg>
